<svg xmlns="http://www.w3.org/2000/svg" viewBox="0 0 30 30">
  <path style="fill:#FFF" d="M17.984 3.986A1 1 0 0 0 17 5H7a1 1 0 1 0 0 2h10v3H2.6l-.422-2.117A1.1 1.1 0 0 0 0 8.1v3.511c0 .836.517 1.582 1.3 1.873 1.75.65 4.765 1.76 5.81 2.082 1.504.466 3.535 4.141 3.535 4.141l.003-.006A5.994 5.994 0 0 0 16 23h8c1.862 0 3.412-1.278 3.86-3h-2.387c-1.515 0-2.9-.856-3.578-2.21l-1.172-2.343A1 1 0 0 1 21.617 14h5.305A7.992 7.992 0 0 0 20 10h-1V7h10a1 1 0 1 0 0-2H19a1 1 0 0 0-1.016-1.014zm10.971 19.002a1 1 0 0 0-.85.565S27.332 25 25.996 25H10a1 1 0 1 0 0 2h15.996c2.668 0 3.899-2.553 3.899-2.553a1 1 0 0 0-.94-1.459z"/>
</svg>
