<svg xmlns="http://www.w3.org/2000/svg" xml:space="preserve" width="402.979" height="402.98" style="enable-background:new 0 0 402.979 402.98" fill="white"><path d="M401.098 173.863c-3.679-26.537-12.961-52.711-26.852-75.692-13.571-22.455-31.934-42.557-53.098-58.134-21.481-15.808-46.475-27.396-72.278-33.514a200.687 200.687 0 0 0-46.225-5.381c-.385 0-.771.013-1.156.016-.385-.003-.77-.016-1.156-.016a200.72 200.72 0 0 0-46.225 5.381c-25.805 6.117-50.799 17.706-72.277 33.514-21.164 15.577-39.525 35.679-53.097 58.134-13.89 22.981-23.175 49.155-26.852 75.692-3.804 27.466-1.819 56.001 5.745 82.523 7.252 25.415 19.898 49.799 36.568 70.516 16.494 20.496 37.385 37.979 60.41 50.555 23.664 12.924 50.357 21.062 77.193 23.533 6.107.562 12.32.848 18.467.848h2.445c6.148 0 12.361-.285 18.47-.848 26.836-2.473 53.526-10.609 77.19-23.533 23.026-12.576 43.914-30.059 60.411-50.555 16.671-20.717 29.315-45.101 36.567-70.516 7.567-26.521 9.553-55.056 5.75-82.523zM166.992 355.189c-26.398-5.723-51.072-18.324-71.354-36.449-20.141-18.004-35.394-40.938-44.107-66.326-10.244-29.846-11.169-63.041-2.609-93.468 8.938 7.768 18.547 16.027 28.264 23.806a611.192 611.192 0 0 0 22.729 17.354 450.87 450.87 0 0 0 11.525 8.085 327.983 327.983 0 0 0 5.756 3.815 315.7 315.7 0 0 0 2.594 1.666c.984.624 1.234.923 1.681 2.005 7.584 18.4 22.036 31.432 32.827 39.123a105.249 105.249 0 0 0 11.348 7.062 94.97 94.97 0 0 0 3.24 1.662 403.864 403.864 0 0 0 .93 9.53c.982 9.012 2.264 18.322 3.918 28.462 2.938 18.015 6.678 36.497 11.434 56.505-.002 0-5.578-.252-18.176-2.832zm31.943-210.146c-13.793 0-25.855 1.274-36.873 3.897a94.372 94.372 0 0 0-9.873 2.908 75.948 75.948 0 0 0-6.711 2.761c-.719.336-1.363.065-1.999-.254a9.37 9.37 0 0 0-.528-.254c-7.701-3.424-16.213-6.88-26.01-10.561-17.166-6.452-35.454-12.459-54.354-17.856v-.001c12.685-22.957 31.079-42.576 53.197-56.737 25.254-16.171 54.492-24.718 84.549-24.718h2.313c30.057 0 59.295 8.547 84.549 24.718 22.118 14.161 40.514 33.78 53.197 56.737v.001c-18.898 5.397-37.188 11.404-54.354 17.856-9.797 3.681-18.307 7.137-26.01 10.561a9.33 9.33 0 0 0-.527.254c-.638.319-1.28.59-2 .254a67.871 67.871 0 0 0-2.039-.92 77.57 77.57 0 0 0-4.672-1.841 93.829 93.829 0 0 0-9.872-2.908c-11.018-2.623-23.08-3.897-36.872-3.897h-5.111zm152.514 107.371c-8.713 25.389-23.967 48.322-44.107 66.326-20.279 18.125-44.954 30.729-71.352 36.449-11.934 2.469-18.176 2.832-18.176 2.832 4.754-20.009 8.496-38.49 11.435-56.506 1.653-10.139 2.936-19.449 3.92-28.462.237-2.171.454-4.341.66-6.517.096-1 .184-2.004.268-3.012 1.094-.535 2.17-1.09 3.24-1.662a105.832 105.832 0 0 0 11.348-7.063c10.791-7.69 25.241-20.722 32.828-39.123.444-1.082.694-1.381 1.68-2.005a350.083 350.083 0 0 0 8.35-5.482 448.363 448.363 0 0 0 11.525-8.084 608.671 608.671 0 0 0 22.727-17.354c9.722-7.778 19.329-16.038 28.267-23.806 8.557 30.428 7.631 63.623-2.613 93.469z"/></svg>