<svg xmlns="http://www.w3.org/2000/svg" viewBox="0 0 97 97">
  <path d="M13.855 69.547a6.613 6.613 0 0 0 2.473 3.375 6.872 6.872 0 0 0 5.707 1.086 107.08 107.08 0 0 1-2.957-12.973 15.696 15.696 0 0 1-2.91-9.105v-9.985c0-3.562 2.895-6.453 6.465-6.453h51.734c3.57 0 6.465 2.89 6.465 6.453v9.985a15.7 15.7 0 0 1-2.91 9.105 115.534 115.534 0 0 1-2.926 12.977 6.846 6.846 0 0 0 5.676-1.09 6.598 6.598 0 0 0 2.465-3.36A82.828 82.828 0 0 0 87.3 43.56c0-22.994-16.68-40.333-38.8-40.333-22.121 0-38.8 17.34-38.8 40.332a82.63 82.63 0 0 0 4.155 25.988Zm28.18 20.8v1.614c0 .89.723 1.613 1.613 1.613h8.895a2.421 2.421 0 0 0 2.422-2.422 2.418 2.418 0 0 0-2.422-2.418h-8.895c-.89 0-1.613.723-1.613 1.614ZM87.27 67.763a3.853 3.853 0 0 0 3.75-3.067l2.664-13.351a3.75 3.75 0 0 0-.625-2.953 3.765 3.765 0 0 0-2.594-1.547 85.922 85.922 0 0 1-3.387 20.918Zm-66.93 9.68a10.264 10.264 0 0 1-2.711-.391l1.414 5.648c1.363 5.446 6.273 9.266 11.898 9.262h7.86v-1.613a4.73 4.73 0 0 1 .297-1.614H30.94a9.005 9.005 0 0 1-8.757-6.82l-1.133-4.52c-.242.016-.477.047-.711.047Zm0 0" style="stroke:none;fill-rule:nonzero;fill:#FFF;fill-opacity:1"/>
  <path d="M77.602 41.945a3.232 3.232 0 0 0-3.235-3.226H22.633a3.232 3.232 0 0 0-3.235 3.226v9.985c0 5.742 3.895 10.761 9.465 12.203a12.642 12.642 0 0 0 14.211-6.082 6.21 6.21 0 0 1 10.852 0 12.642 12.642 0 0 0 14.21 6.082c5.571-1.442 9.466-6.461 9.466-12.203Zm-54.497 3.7 3.235-3.227a1.621 1.621 0 0 1 2.265.02 1.61 1.61 0 0 1 .02 2.261l-3.23 3.227a1.617 1.617 0 0 1-2.29-2.281Zm15.223-.946-11.32 11.293a1.614 1.614 0 0 1-2.285-2.281l11.316-11.293a1.621 1.621 0 0 1 2.266.02c.625.624.633 1.628.023 2.261ZM4.094 48.184a3.766 3.766 0 0 0-.782 3.152l2.668 13.36a3.849 3.849 0 0 0 3.75 3.066h.192a86.12 86.12 0 0 1-3.395-20.918 3.783 3.783 0 0 0-2.433 1.34Zm0 0" style="stroke:none;fill-rule:nonzero;fill:#FFF;fill-opacity:1"/>
</svg>
