<svg xmlns="http://www.w3.org/2000/svg" viewBox="0 0 97 97">
  <path d="M92.281 32.742a1.314 1.314 0 0 0-.469-.488l-9.648-5.922.094-11.305a1.337 1.337 0 0 0-1.98-1.176l-9.458 5.227a1.314 1.314 0 0 0-.61.719l-.89 2.496a37.66 37.66 0 0 0-27.1-11.484c-5.086 0-10.02.996-14.664 2.957a37.512 37.512 0 0 0-11.973 8.054 37.479 37.479 0 0 0-8.07 11.95A37.26 37.26 0 0 0 4.55 48.398c0 5.075.996 10 2.96 14.633a37.522 37.522 0 0 0 8.071 11.95 37.576 37.576 0 0 0 11.973 8.054 37.497 37.497 0 0 0 14.664 2.957c5.086 0 10.02-.996 14.664-2.957a37.576 37.576 0 0 0 11.972-8.055 37.522 37.522 0 0 0 8.07-11.949 37.279 37.279 0 0 0 2.962-14.633c0-1.253-.063-2.52-.192-3.765a1.331 1.331 0 0 0-1.46-1.192 1.332 1.332 0 0 0-1.192 1.457 34.94 34.94 0 0 1 .176 3.5c0 19.262-15.7 34.93-35 34.93-19.301 0-35-15.668-35-34.93 0-19.257 15.699-34.925 35-34.925a34.983 34.983 0 0 1 26.093 11.652l-3.25 9.133-.546.304a26.28 26.28 0 0 0-22.297-12.367c-3.543 0-6.985.696-10.223 2.063a26.173 26.173 0 0 0-8.344 5.613 26.152 26.152 0 0 0-5.629 8.328 26.035 26.035 0 0 0-2.062 10.2c0 3.538.695 6.968 2.062 10.203a26.195 26.195 0 0 0 5.63 8.328 26.173 26.173 0 0 0 8.343 5.613 26.145 26.145 0 0 0 10.223 2.059c3.543 0 6.984-.692 10.222-2.059a26.173 26.173 0 0 0 8.344-5.613 26.12 26.12 0 0 0 5.625-8.328 25.988 25.988 0 0 0 2.067-10.204c0-1.941-.22-3.882-.649-5.777a1.334 1.334 0 0 0-2.601.59c.386 1.703.582 3.441.582 5.187 0 12.98-10.582 23.543-23.59 23.543s-23.59-10.562-23.59-23.543c0-12.98 10.582-23.539 23.59-23.539 8.129 0 15.66 4.18 19.96 10.993l-6.367 3.515a16.337 16.337 0 0 0-13.59-7.262c-2.202 0-4.343.43-6.355 1.282a16.276 16.276 0 0 0-5.191 3.492 16.248 16.248 0 0 0-3.5 5.18 16.145 16.145 0 0 0-1.281 6.34c0 2.199.43 4.335 1.28 6.343.825 1.942 2 3.684 3.5 5.18a16.276 16.276 0 0 0 5.192 3.492 16.22 16.22 0 0 0 6.356 1.281c2.203 0 4.34-.43 6.355-1.28a16.276 16.276 0 0 0 5.192-3.493 16.174 16.174 0 0 0 3.496-5.18 16.098 16.098 0 0 0 1.285-6.344c0-.476-.02-.96-.063-1.437a1.334 1.334 0 0 0-2.656.234c.035.399.05.805.05 1.203 0 7.52-6.128 13.637-13.66 13.637-7.535 0-13.663-6.117-13.663-13.637 0-7.515 6.128-13.632 13.664-13.632 4.515 0 8.715 2.23 11.246 5.898l-4.95 2.734a8.035 8.035 0 0 0-6.269-3.007c-4.426 0-8.027 3.593-8.027 8.007 0 4.418 3.601 8.012 8.027 8.012a8.002 8.002 0 0 0 7.633-5.535 1.33 1.33 0 0 0-.856-1.676 1.334 1.334 0 0 0-1.68.856 5.348 5.348 0 0 1-5.097 3.695c-2.957 0-5.363-2.402-5.363-5.352 0-2.949 2.406-5.347 5.363-5.347 1.488 0 2.887.617 3.883 1.664l-4.559 2.52a1.331 1.331 0 1 0 1.29 2.331l5.71-3.156a1.438 1.438 0 0 0 .34-.187l7.016-3.875c.02-.012.039-.02.058-.032a.906.906 0 0 0 .055-.03l8.625-4.766h.004v-.004l1.683-.926 15.012 3.324v-.004c.094.024.192.035.29.035.218 0 .44-.054.644-.168l9.46-5.226a1.326 1.326 0 0 0 .52-1.809ZM72.555 21.164l7.02-3.879-.075 9-10.914 6.027Zm8.898 16.04L69.88 34.64l10.91-6.028 7.684 4.715Zm0 0" style="stroke:none;fill-rule:nonzero;fill:#FFFF;fill-opacity:1"/>
</svg>
